HIERARCHY
ROOT Hips
{
    OFFSET   0.000000   0.000000   0.000000
    CHANNELS 6 Xposition Yposition Zposition Zrotation Xrotation Yrotation
    JOINT Chest
    {
        OFFSET   0.000000   8.007230   0.000000
        CHANNELS 3 Zrotation Xrotation Yrotation
        JOINT Chest2
        {
            OFFSET   0.000000  22.077100   0.000000
            CHANNELS 3 Zrotation Xrotation Yrotation
            JOINT Neck
            {
                OFFSET   0.000000  23.254700   0.000000
                CHANNELS 3 Zrotation Xrotation Yrotation
                JOINT Head
                {
                    OFFSET   0.000010  14.370000   1.956610
                    CHANNELS 3 Zrotation Xrotation Yrotation
                    End Site
                    {
                        OFFSET   0.000000  19.566000   0.000000
                    }
                }
            }
            JOINT LeftCollar
            {
                OFFSET   3.911900  19.017000  -0.467063
                CHANNELS 3 Zrotation Xrotation Yrotation
                JOINT LeftShoulder
                {
                    OFFSET  10.383700   0.000000   0.000000
                    CHANNELS 3 Zrotation Xrotation Yrotation
                    JOINT LeftElbow
                    {
                        OFFSET  26.662100   0.001671   0.000522
                        CHANNELS 3 Zrotation Xrotation Yrotation
                        JOINT LeftWrist
                        {
                            OFFSET  28.869000   0.000037  -0.000114
                            CHANNELS 3 Zrotation Xrotation Yrotation
                            JOINT LeftFinger0
                            {
                                OFFSET   2.044650  -2.323450   3.252850
                                CHANNELS 3 Zrotation Xrotation Yrotation
                                JOINT LeftFinger01
                                {
                                    OFFSET   3.088140   0.000000   0.000000
                                    CHANNELS 3 Zrotation Xrotation Yrotation
                                    JOINT LeftFinger02
                                    {
                                        OFFSET   2.639460   0.000000   0.000000
                                        CHANNELS 3 Zrotation Xrotation Yrotation
                                        End Site
                                        {
                                            OFFSET   2.582190   0.000000   0.000000
                                        }
                                    }
                                }
                            }
                            JOINT LeftFinger1
                            {
                                OFFSET   8.364480   0.000000   3.252850
                                CHANNELS 3 Zrotation Xrotation Yrotation
                                JOINT LeftFinger11
                                {
                                    OFFSET   4.646930   0.000000   0.000000
                                    CHANNELS 3 Zrotation Xrotation Yrotation
                                    JOINT LeftFinger12
                                    {
                                        OFFSET   2.323470   0.000000   0.000000
                                        CHANNELS 3 Zrotation Xrotation Yrotation
                                        End Site
                                        {
                                            OFFSET   2.273050   0.000000   0.000000
                                        }
                                    }
                                }
                            }
                            JOINT LeftFinger2
                            {
                                OFFSET   8.364490   0.000016   1.078090
                                CHANNELS 3 Zrotation Xrotation Yrotation
                                JOINT LeftFinger21
                                {
                                    OFFSET   5.111620   0.000000   0.000000
                                    CHANNELS 3 Zrotation Xrotation Yrotation
                                    JOINT LeftFinger22
                                    {
                                        OFFSET   2.788150   0.000013   0.000000
                                        CHANNELS 3 Zrotation Xrotation Yrotation
                                        End Site
                                        {
                                            OFFSET   2.727660   0.000000   0.000000
                                        }
                                    }
                                }
                            }
                            JOINT LeftFinger3
                            {
                                OFFSET   7.899780   0.000016  -1.078090
                                CHANNELS 3 Zrotation Xrotation Yrotation
                                JOINT LeftFinger31
                                {
                                    OFFSET   4.646930   0.000000   0.000000
                                    CHANNELS 3 Zrotation Xrotation Yrotation
                                    JOINT LeftFinger32
                                    {
                                        OFFSET   2.323470   0.000000   0.000000
                                        CHANNELS 3 Zrotation Xrotation Yrotation
                                        End Site
                                        {
                                            OFFSET   2.273050   0.000000   0.000000
                                        }
                                    }
                                }
                            }
                            JOINT LeftFinger4
                            {
                                OFFSET   7.435080   0.000000  -3.252850
                                CHANNELS 3 Zrotation Xrotation Yrotation
                                JOINT LeftFinger41
                                {
                                    OFFSET   3.717550   0.000000   0.000000
                                    CHANNELS 3 Zrotation Xrotation Yrotation
                                    JOINT LeftFinger42
                                    {
                                        OFFSET   1.858760   0.000000   0.000000
                                        CHANNELS 3 Zrotation Xrotation Yrotation
                                        End Site
                                        {
                                            OFFSET   1.818440   0.000000   0.000000
                                        }
                                    }
                                }
                            }
                        }
                    }
                }
            }
            JOINT RightCollar
            {
                OFFSET  -3.911900  19.017000  -0.467064
                CHANNELS 3 Zrotation Xrotation Yrotation
                JOINT RightShoulder
                {
                    OFFSET -10.383700   0.000000   0.000000
                    CHANNELS 3 Zrotation Xrotation Yrotation
                    JOINT RightElbow
                    {
                        OFFSET -26.662100   0.001633   0.000260
                        CHANNELS 3 Zrotation Xrotation Yrotation
                        JOINT RightWrist
                        {
                            OFFSET -28.869000  -0.000045  -0.000080
                            CHANNELS 3 Zrotation Xrotation Yrotation
                            JOINT RightFinger0
                            {
                                OFFSET  -2.044660  -2.323490   3.252850
                                CHANNELS 3 Zrotation Xrotation Yrotation
                                JOINT RightFinger01
                                {
                                    OFFSET  -3.088140   0.000000   0.000000
                                    CHANNELS 3 Zrotation Xrotation Yrotation
                                    JOINT RightFinger02
                                    {
                                        OFFSET  -2.639450   0.000000   0.000000
                                        CHANNELS 3 Zrotation Xrotation Yrotation
                                        End Site
                                        {
                                            OFFSET  -2.582190   0.000000   0.000000
                                        }
                                    }
                                }
                            }
                            JOINT RightFinger1
                            {
                                OFFSET  -8.364480   0.000000   3.252850
                                CHANNELS 3 Zrotation Xrotation Yrotation
                                JOINT RightFinger11
                                {
                                    OFFSET  -4.646920   0.000000   0.000000
                                    CHANNELS 3 Zrotation Xrotation Yrotation
                                    JOINT RightFinger12
                                    {
                                        OFFSET  -2.323470   0.000000   0.000000
                                        CHANNELS 3 Zrotation Xrotation Yrotation
                                        End Site
                                        {
                                            OFFSET  -2.273050   0.000000   0.000000
                                        }
                                    }
                                }
                            }
                            JOINT RightFinger2
                            {
                                OFFSET  -8.364480   0.000000   1.078090
                                CHANNELS 3 Zrotation Xrotation Yrotation
                                JOINT RightFinger21
                                {
                                    OFFSET  -5.111610   0.000000   0.000000
                                    CHANNELS 3 Zrotation Xrotation Yrotation
                                    JOINT RightFinger22
                                    {
                                        OFFSET  -2.788160   0.000000   0.000000
                                        CHANNELS 3 Zrotation Xrotation Yrotation
                                        End Site
                                        {
                                            OFFSET  -2.727660   0.000000   0.000000
                                        }
                                    }
                                }
                            }
                            JOINT RightFinger3
                            {
                                OFFSET  -7.899780   0.000000  -1.078090
                                CHANNELS 3 Zrotation Xrotation Yrotation
                                JOINT RightFinger31
                                {
                                    OFFSET  -4.646930   0.000000   0.000000
                                    CHANNELS 3 Zrotation Xrotation Yrotation
                                    JOINT RightFinger32
                                    {
                                        OFFSET  -2.323470   0.000000   0.000000
                                        CHANNELS 3 Zrotation Xrotation Yrotation
                                        End Site
                                        {
                                            OFFSET  -2.273050   0.000000   0.000000
                                        }
                                    }
                                }
                            }
                            JOINT RightFinger4
                            {
                                OFFSET  -7.435090   0.000000  -3.252850
                                CHANNELS 3 Zrotation Xrotation Yrotation
                                JOINT RightFinger41
                                {
                                    OFFSET  -3.717550   0.000000   0.000000
                                    CHANNELS 3 Zrotation Xrotation Yrotation
                                    JOINT RightFinger42
                                    {
                                        OFFSET  -1.858760   0.000000   0.000000
                                        CHANNELS 3 Zrotation Xrotation Yrotation
                                        End Site
                                        {
                                            OFFSET  -1.818440   0.000000   0.000000
                                        }
                                    }
                                }
                            }
                        }
                    }
                }
            }
        }
    }
    JOINT LeftHip
    {
        OFFSET   9.782990   0.000000   0.000000
        CHANNELS 3 Zrotation Xrotation Yrotation
        JOINT LeftKnee
        {
            OFFSET  -0.000063 -41.789100   0.001657
            CHANNELS 3 Zrotation Xrotation Yrotation
            JOINT LeftAnkle
            {
                OFFSET   0.000078 -41.133200  -0.000113
                CHANNELS 3 Zrotation Xrotation Yrotation
                JOINT LeftToe
                {
                    OFFSET   0.000000  -6.358970  14.674500
                    CHANNELS 3 Zrotation Xrotation Yrotation
                    End Site
                    {
                        OFFSET   0.000000   0.000000   3.913200
                    }
                }
            }
        }
    }
    JOINT RightHip
    {
        OFFSET  -9.782990   0.000000   0.000000
        CHANNELS 3 Zrotation Xrotation Yrotation
        JOINT RightKnee
        {
            OFFSET   0.000053 -41.789200   0.000277
            CHANNELS 3 Zrotation Xrotation Yrotation
            JOINT RightAnkle
            {
                OFFSET   0.000030 -41.133200  -0.000150
                CHANNELS 3 Zrotation Xrotation Yrotation
                JOINT RightToe
                {
                    OFFSET   0.000000  -6.358960  14.674500
                    CHANNELS 3 Zrotation Xrotation Yrotation
                    End Site
                    {
                        OFFSET   0.000000   0.000000   3.913200
                    }
                }
            }
        }
    }
}
MOTION
Frames: 4
Frame Time:   0.016667
  2.944890  89.567900   1.338250  -3.735380  -9.885880  -3.426950   1.354710   6.615830  -0.899791   2.843310  13.207500  -1.977940   1.709030  -0.273148   0.011164   2.808170  -0.548556   9.800700  -6.326840  -0.671209   2.717610 -71.561200  24.737000 -10.109800  -1.318000 -10.877900 -15.682900  12.387300 -11.324500   2.880400  37.853300  26.084000 -54.076400 -29.339200   0.005477   0.003112  -9.669590   0.014063  -0.000366 -28.814300   4.789180  -8.630480 -23.871200  -0.005972  -0.002851 -16.709900  -0.000459  -0.003863 -28.446400  -1.462720   2.714370 -35.834600  -0.000244  -0.003083 -23.865900   0.000617  -0.008787 -28.239500  -1.452920   2.719690 -33.904400  -0.000323  -0.003286 -22.580300  -0.005950  -0.008850 -35.279200  -1.777020   2.519690 -52.977200  -0.011113  -0.010806 -35.282800  -0.001078  -0.010174   9.190410   0.573058   9.516050  68.093400  19.058900  -0.334213  -4.041420  -2.664160  17.286000 -14.835700  -9.624890  -0.995893 -39.558700  22.868100  56.425400  22.495500  -0.005928  -0.001711   6.256480   0.015234  -0.001115  26.432500   4.315010   8.582380  21.892400   0.001576  -0.007806  15.324700  -0.000598  -0.005809  28.647200   0.307299   0.562634  38.032200  -0.004277   0.003886  25.329400  -0.003169   0.004052  28.255800   0.303526   0.564688  33.922700  -0.003006   0.003779  22.592500  -0.003405   0.004294  34.933500   0.265948   0.368558  52.401500   0.002794   0.007610  34.899400  -0.001424   0.007964   1.561910  12.348900   8.290860   0.483346   0.007530  11.812800  -0.332200  -3.903570   4.097110  -0.000000   0.000000   0.000000   3.363430  10.118500   0.374110  -2.488180   3.772170  -9.639710   1.491680  -4.836980   1.068770   0.000000   0.000000   0.000000
  2.952290  89.568000   1.363680  -3.760930  -9.891760  -3.514160   1.362360   6.615830  -0.903071   2.859160  13.207200  -1.985460   1.727680  -0.272850   0.011152   2.838820  -0.548203   9.675490  -6.347490  -0.653814   2.681520 -71.470900  24.930100 -10.429500  -1.225460 -11.044800 -15.564900  12.446400 -11.236600   2.902050  37.860300  26.091200 -54.054100 -29.326400   0.005483   0.003124  -9.663210   0.014075  -0.000362 -28.832200   4.801300  -8.643450 -23.886900  -0.005965  -0.002838 -16.720900  -0.000462  -0.003869 -28.446600  -1.462730   2.706310 -35.857100  -0.000235  -0.003067 -23.880900   0.000612  -0.008778 -28.239900  -1.452930   2.711610 -33.925700  -0.000300  -0.003270 -22.594500  -0.005961  -0.008826 -35.292900  -1.776210   2.511670 -52.997800  -0.011127  -0.010803 -35.296600  -0.001083  -0.010171   9.189690   0.578484   9.506180  68.117900  19.022500  -0.346324  -4.031000  -2.646350  17.262300 -14.827100  -9.604120  -0.992181 -39.556900  22.861700  56.423400  22.490500  -0.005934  -0.001698   6.250190   0.015239  -0.001128  26.432500   4.315030   8.582410  21.892400   0.001574  -0.007808  15.324700  -0.000598  -0.005809  28.647200   0.307298   0.562632  38.032200  -0.004277   0.003884  25.329400  -0.003170   0.004051  28.255800   0.303526   0.564688  33.903100  -0.003004   0.003775  22.579500  -0.003407   0.004292  34.928200   0.265939   0.368558  52.393500   0.002795   0.007608  34.894100  -0.001428   0.007963   1.567640  12.357500   8.315860   0.473363   0.060954  11.838500  -0.335488  -3.960070   4.131030  -0.000000   0.000000  -0.000000   3.370640  10.138800   0.387282  -2.501450   3.766120  -9.619150   1.501600  -4.837530   1.117470   0.000000   0.000000  -0.000000
  2.964050  89.568100   1.405470  -3.803050  -9.903980  -3.657770   1.375500   6.615880  -0.909393   2.886440  13.206900  -1.999800   1.758170  -0.272553   0.011128   2.888840  -0.547991   9.460120  -6.381290  -0.622212   2.627850 -71.317400  25.231000 -10.960700  -1.054610 -11.298200 -15.401800  12.511100 -11.148300   2.952800  37.881100  26.083000 -54.005800 -29.303400   0.005506   0.003148  -9.651670   0.014103  -0.000355 -28.862600   4.813420  -8.656410 -23.913100  -0.005948  -0.002805 -16.739200  -0.000471  -0.003888 -28.446900  -1.462750   2.698260 -35.891500  -0.000218  -0.003028 -23.903800   0.000596  -0.008759 -28.240200  -1.452940   2.703540 -33.950300  -0.000243  -0.003229 -22.610900  -0.005987  -0.008771 -35.318200  -1.775410   2.503650 -53.035500  -0.011161  -0.010794 -35.321700  -0.001096  -0.010163   9.189120   0.583923   9.488610  68.154800  18.971700  -0.365638  -4.014980  -2.620500  17.225500 -14.817900  -9.575540  -0.986160 -39.558000  22.851300  56.428900  22.479300  -0.005947  -0.001686   6.239660   0.015249  -0.001145  26.432500   4.315090   8.582460  21.892400   0.001562  -0.007815  15.324700  -0.000599  -0.005813  28.647200   0.307298   0.562630  38.032200  -0.004275   0.003874  25.329400  -0.003177   0.004045  28.255800   0.303528   0.564688  33.874200  -0.002998   0.003763  22.560200  -0.003412   0.004285  34.920300   0.265920   0.368559  52.381800   0.002797   0.007597  34.886300  -0.001439   0.007959   1.574600  12.392600   8.357610   0.463293   0.114359  11.884200  -0.336616  -4.027590   4.183300  -0.000000   0.000000  -0.000000   3.383630  10.173800   0.402869  -2.523800   3.757820  -9.582420   1.517820  -4.838390   1.198280   0.000000   0.000000   0.000000
  2.972050  89.568200   1.437740  -3.835940  -9.918140  -3.769810   1.387100   6.618240  -0.915553   2.910640  13.211200  -2.013700   1.781490  -0.272613   0.011098   2.927140  -0.548729   9.271410  -6.407200  -0.590761   2.599920 -71.193300  25.453900 -11.386400  -0.893443 -11.476600 -15.339300  12.518000 -11.155100   3.021300  37.860900  25.996400 -53.912000 -29.292300   0.005555   0.003175  -9.646130   0.014146  -0.000349 -28.895500   4.797920  -8.619070 -23.938900  -0.005920  -0.002752 -16.757200  -0.000487  -0.003924 -28.445000  -1.482640   2.734760 -35.916100  -0.000197  -0.002973 -23.920200   0.000569  -0.008734 -28.237900  -1.472660   2.740130 -33.954200  -0.000156  -0.003165 -22.613500  -0.006028  -0.008691 -35.349100  -1.800510   2.536860 -53.083000  -0.011213  -0.010780 -35.353300  -0.001117  -0.010152   9.189890   0.581734   9.470980  68.177000  18.951100  -0.382364  -4.005300  -2.608490  17.202200 -14.817800  -9.566360  -0.981659 -39.575200  22.885600  56.484700  22.459100  -0.005960  -0.001690   6.228990   0.015259  -0.001150  26.432500   4.315160   8.582510  21.892500   0.001534  -0.007826  15.324800  -0.000604  -0.005822  28.647100   0.307862   0.564299  38.032200  -0.004272   0.003855  25.329400  -0.003187   0.004029  28.255900   0.304080   0.566367  33.856900  -0.002992   0.003745  22.548600  -0.003423   0.004272  34.915400   0.265892   0.368771  52.376100   0.002800   0.007576  34.881400  -0.001455   0.007950   1.573680  12.475500   8.392490   0.454482   0.057047  11.926700  -0.328219  -4.034820   4.216120  -0.000000   0.000000   0.000000   3.396410  10.203000   0.405699  -2.543440   3.755280  -9.547840   1.530170  -4.838860   1.262770   0.000000   0.000000   0.000000
